# xmcd CD database file generated by MAGIX-FreeDB-MP3_Maker_15 v2.0beta1
#
# Track frame offsets:
#      150
#      21161
#      39052
#      59883
#      75801
#      105596
#      123231
#      142973
#      158408
#      173871
#      205684
#
# Disc length: 3043 seconds
#
# Revision: 1
# Processed by: cddbd v1.5.2PL0 Copyright (c) Steve Scherf et al.
# Submitted via: MAGIX-FreeDB-MP3_Maker_15 v2.0beta1
#
DISCID=7c0be10b
DTITLE=Various Artist - Atlas - a global journey by ABB
DYEAR=2000
DGENRE=New Age
TTITLE0=Sina - puppilächt
TTITLE1=Various Artist - global journey
TTITLE2=Various Artist - sani
TTITLE3=Various Artist - sea in a shell
TTITLE4=Various Artist - affront
TTITLE5=Various Artist - overtune
TTITLE6=Various Artist - cima di rap
TTITLE7=Various Artist - qué tal
TTITLE8=Various Artist - bülach
TTITLE9=Various Artist - shine
TTITLE10=Various Artist - ABB
EXTD=YEAR: 2000
EXTT0=
EXTT1=
EXTT2=
EXTT3=
EXTT4=
EXTT5=
EXTT6=
EXTT7=
EXTT8=
EXTT9=
EXTT10=
PLAYORDER=
